<svg xmlns="http://www.w3.org/2000/svg" width="434.6" height="356.3" viewBox="0 0 434.6 356.3"><defs><style>.cls-1{fill:#ff9600;}</style></defs><title>cat</title><g id="Calque_2" data-name="Calque 2"><g id="Layer_1" data-name="Layer 1"><path class="cls-1" d="M15.1,338.4c3-.3,5.5-2.4,7.9-6.1s1.8-5.6,2-8.3v-.6a19.5,19.5,0,0,0-.1-4.2,10.4,10.4,0,0,1,.1-4c2.4-7.6,5.3-15,7.9-21.3s8.6-11.7,17.4-14.4,17.8-5,27.4-7.3l9.4-2.3a23.3,23.3,0,0,1,.3,5.8,58.7,58.7,0,0,1-1.6,9c-.3,1-.5,1.9-.7,2.9-1.8,8.2-3,18.8,4.2,27.8,10,12.7,20.3,24.9,30.9,37.3,1.8,2.2,5,3.2,7.3,3.4l9.1.2a78.1,78.1,0,0,0,8.3-.4,11.9,11.9,0,0,0,8.3-5.7c1.6-2.9.4-7.7-1.7-9.7-3.9-4.1-7.4-6-10.4-5.8-5,.2-7.6-2.7-10.9-6.5l-.9-1-2.8-2.9a31.2,31.2,0,0,1-4.6-5.2,21.2,21.2,0,0,1-2.7-8.6c-.1-1.3,1.2-3.7,2-5.2,3.3-6.1,7.9-11.4,12.6-17,6.5-7.5,13.3-15.4,16.8-25.5a7.5,7.5,0,0,1,2.4-.8l15.3-.6c4.3-.1,8.8-.2,13.2-.5H184c3.7-.1,7.5-.2,10.9-1.8,7.4-3.5,14.2-1.8,22.4.8l5.9,1.7,7.8,2.3.6.7L230.4,275c-1,9.8-2.1,20-4.8,29.4-3.3,11.5-3.8,22.7-3.6,35.9.2,5.9,4.3,9.8,10.6,9.8h13.9c3.2.1,7.3-1.1,8.3-7.2,1.4-8.1-4.8-11.5-7.9-13.2a3.8,3.8,0,0,1-1.7-1.6,11,11,0,0,1,.9-5.5l1.9-3.7c7.2-14.1,14.7-28.6,22.5-42.6,2.9-5.1,7.6-7.7,14-7.5a53.2,53.2,0,0,0,12-1.4l5.1-.9,1.1-.2h.2l1.3,1.1c5.1,4.1,10.4,8.3,15.2,12.8a26.7,26.7,0,0,1,3.2,4,22.6,22.6,0,0,0,4.7,5.6c7.1,5.7,14.2,11.6,21,17.3,14.5,12.1,29.6,24.6,45.7,35.5,8.9,6.1,16.9,8.4,26.5,7.6h1.4c7-.4,12.7-5.3,12.7-11.1,0-2.4-1.4-5-3.8-7.2a12.6,12.6,0,0,0-9.7-3.5c-5.6.7-9.8-1.3-14.2-6.4-2.4-2.9-5-5.6-7.5-8.2l-1.7-1.9c-14.6-15.4-24.3-29.5-30.5-44.1-1-2.5-2-4.8-2.1-7-.2-5.9-.4-11.9-.5-17.7-.2-9-.4-18.2-1.1-27.3s3.9-18.6,11.5-26.1,14.8-10.3,22.1-9.7a35.1,35.1,0,0,0,8-.7h.2c3.5-.6,7.4-5.5,10-9.5s6-10,5-14.1a15.7,15.7,0,0,0-1.2-2.8l-3.1-4.4c-4.4-6.5-9-13.2-13.6-19.7a23,23,0,0,0-5.6-4.8l-.8-.5a22.1,22.1,0,0,0-6.8-3.6c-4.2-1.1-5.3-3.1-4.5-8a42.9,42.9,0,0,0,.3-8.7c-.1-1-.1-2-.1-2.9V98.2l-6.6-2.9-3.1-3.8-6.1,7.1-8.6,10c-4.5,5.4-10.5,8.8-16.2,11.7s-9.5,5.8-13.9,9l-3.8,2.8a34.4,34.4,0,0,0-4.1,3.5l-2.8,2.4c-11,8.8-20.9,11.9-32.2,10-14.1-2.3-28.5-4.4-42.4-6.4-9.3-1.3-18.9-2.7-28.3-4.2l-11-1.7c-19.5-3.2-39.7-6.4-60-5.5-9.3.4-18.8,1.4-27.9,2.3-6.4.7-13,1.3-19.5,1.8a15.8,15.8,0,0,1-8.7-1.5c-13.3-7.4-21.6-16.8-25.3-28.7l-1.2-4C62,96.6,60.9,93,59.9,89.4c-5.6-19.4-5.1-34.2,1.5-48A21.4,21.4,0,0,1,76.3,29.2,20.4,20.4,0,0,1,94,34c4.1,3.6,7.7,4.7,10.8,3.6s5-4.3,5.8-9.5c.4-2.3.7-6.6-1-10.1C104.6,8,96.7,1.7,87.8.6,66.9-1.9,51.1,3.5,40.7,16.7,27.3,33.8,21.4,53.9,23.4,75a121.2,121.2,0,0,0,12.2,41.5c4.4,9,9.6,17.8,14.5,26.3l7.3,12.6,1,1.6c.7,1.3,1.8,3,1.8,3.9-.5,7.6-1.7,15.2-2.9,22.5s-2.7,17.2-4.6,25.8c-1.2,5.7-2.4,11.6-4.8,16.9-3.6,8.2-10.2,14-17.1,20.2l-4.5,4-.8.7c-1.8,1.7-3.9,3.5-4.8,6.1-2.1,5.6-4.5,11.3-6.8,16.8C8.3,287.2,2.6,301,.4,316c-1,6.7-.5,12.3,5.2,17.9C7.8,336.1,11.1,338.9,15.1,338.4Z"/></g></g></svg>
