<?xml version="1.0" encoding="utf-8"?>
<!-- Generator: Adobe Illustrator 23.0.3, SVG Export Plug-In . SVG Version: 6.00 Build 0)  -->
<svg version="1.1" id="Capa_1" xmlns="http://www.w3.org/2000/svg" xmlns:xlink="http://www.w3.org/1999/xlink" x="0px" y="0px"
	 viewBox="0 0 375.5 477.9" style="enable-background:new 0 0 375.5 477.9;" xml:space="preserve">
<style type="text/css">
	.st0{fill:#ADADAD;}
</style>
<title>document_blue_empty</title>
<path class="st0" d="M241,15v87.4c0,17.7,14.4,32,32.1,32.1h87.4v292.2c0,20-16.2,36.2-36.2,36.2H51.2c-20,0-36.2-16.2-36.2-36.2
	V51.2C15,31.2,31.2,15,51.2,15H241 M256,0H51.2C22.9,0,0,22.9,0,51.2v375.5c0,28.3,22.9,51.2,51.2,51.2h0h273.1
	c28.3,0,51.2-22.9,51.2-51.2c0,0,0,0,0,0V119.5H273.1c-9.4,0-17.1-7.6-17.1-17.1c0,0,0,0,0,0V0z"/>
<path class="st0" d="M305.1,46.2l24.1,24.1h-24.1V46.2 M290.1,10v75.3h75.3C365.5,85.3,290.1,10,290.1,10z"/>
</svg>
