<svg id="Capa_1" data-name="Capa 1" xmlns="http://www.w3.org/2000/svg" width="375.467" height="477.867" viewBox="0 0 375.467 477.867">
  <title>document_orange_empty</title>
  <path d="M241,15v87.4a32.1033,32.1033,0,0,0,32.067,32.067h87.4v292.2a36.241,36.241,0,0,1-36.2,36.2H51.2a36.241,36.241,0,0,1-36.2-36.2V51.2A36.2411,36.2411,0,0,1,51.2,15H241M256,0H51.2A51.2,51.2,0,0,0,0,51.2V426.667a51.2,51.2,0,0,0,51.2,51.2H324.267a51.2,51.2,0,0,0,51.2-51.2h0v-307.2h-102.4A17.0668,17.0668,0,0,1,256,102.4V0Z" style="fill: orange"/>
  <path d="M305.133,46.2139,329.2524,70.333H305.133V46.2139m-15-36.2129V85.333h75.333Z" style="fill: orange"/>
</svg>
