<svg id="Calque_17" data-name="Calque 17" xmlns="http://www.w3.org/2000/svg" width="840.9" height="1278.8" viewBox="0 0 840.9 1278.8">
  <title>face</title>
  <path d="M552,744c15.8-36.5,31.3-72.9,45.1-109.7s26.4-73.9,35.9-111.1q7.1-27.9,11.4-55.7c1.3-9.2,2.4-18.4,3.1-27.5s1.1-18.1,1.1-27a224.5,224.5,0,0,0-1.5-26.1A219.2,219.2,0,0,0,643,362a173.4,173.4,0,0,0-17.2-44.9A180.6,180.6,0,0,0,613,297.3c-4.6-6.4-9.4-12.7-14.4-19.1-9.8-12.8-21-25.6-34.3-36.9a443,443,0,0,0-43-31.8l-5.8-3.7-7.1-4.7-7-4.9-6.9-5c-9.1-6.9-17.9-14.2-26.3-21.9a351.1,351.1,0,0,1-45.1-50.9,380.3,380.3,0,0,1-34.4-57.7,424.2,424.2,0,0,1-23.9-62c-3.1-10.6-5.9-21.3-8.2-32.2-1.1-5.4-2.2-10.9-3.1-16.6-.4-2.8-.9-5.6-1.3-8.5l-.5-4.5-.3-2.4v-1.3l-.2-1.7L438-55.8a315.1,315.1,0,0,0-16.2,57,276.9,276.9,0,0,0-4.3,58.2,302.6,302.6,0,0,0,7.6,58.6A453.6,453.6,0,0,0,443,177.2c7.3,19.9,15.9,40,24.7,61.3,4.4,10.7,8.9,21.7,13.1,33.3a312.8,312.8,0,0,1,11.6,37.5,191.5,191.5,0,0,1,3.9,21.5,154.3,154.3,0,0,1,1.2,23.9,112.5,112.5,0,0,1-1.1,12.8,100.3,100.3,0,0,1-2.4,13.1,121.1,121.1,0,0,1-3.9,13c-1.6,4.3-3.4,8.4-5.4,12.5a130.5,130.5,0,0,1-14.2,22.1,149.7,149.7,0,0,1-16.7,17.7,207.4,207.4,0,0,1-35.5,25.2L408,477H396a285.2,285.2,0,0,1-46.6-3.8,230.4,230.4,0,0,1-46.9-12.8,220.6,220.6,0,0,1-22.6-10.6,203.2,203.2,0,0,1-58.3-47.1,231.1,231.1,0,0,1-27.5-40.2,262.6,262.6,0,0,1-18.7-43.1,317.1,317.1,0,0,1-11.5-44.3q-2-11.1-3.3-22.5c-.4-3.8-.8-7.7-1-11.6-.2-1.9-.3-3.9-.4-5.9V228l85.2,20.1a599.3,599.3,0,0,0-33.4,82,704.2,704.2,0,0,0-22.1,86.6,785.2,785.2,0,0,0-11.4,89.2c-1,15-1.6,30-1.7,44.9-.1,7.4,0,14.8.2,22.2.1,3.7.2,7.3.4,10.9l.3,5.3v2.5l.2,2.1.2,2.5V598a329,329,0,1,0,658,0v-1.5l.2-2.5.3-4.5.3-5.1c.1-3.5.3-7,.4-10.6.2-7,.3-14.2.3-21.3q-.2-21.4-1.5-42.9a615.6,615.6,0,0,0-11.3-84.2c-5.8-27.3-13.7-53.9-24.5-78.3s-24.1-46.7-40.6-65L837,252v6.4c0,1.8-.1,3.6-.2,5.3-.3,3.5-.5,7-.8,10.4-.7,6.8-1.5,13.5-2.3,20.1-1.8,13.3-3.7,26.6-6.7,39.6a216.3,216.3,0,0,1-12.3,38.3c-5.2,12.4-11,24.6-17.4,36.4a360.9,360.9,0,0,1-46,66.2,325.5,325.5,0,0,1-60,53.2l10.2-15.1c-4.6,11-9.4,21.8-14.5,32.4s-10.5,21-16.1,31.2c-11.1,20.4-23.2,40-35.8,59.2s-25.9,37.7-39.7,55.8S567.1,727.1,552,744Zm0,0c10.2-20.2,19.7-40.6,28.8-61.1,4.5-10.3,8.9-20.6,13.1-31s8.3-20.7,12.2-31.1c2-5.2,3.9-10.4,5.8-15.6l5.4-15.7c3.6-10.4,6.9-20.9,10-31.4a632.8,632.8,0,0,0,15.4-62.9l1.2-6.3,9-8.8a269.6,269.6,0,0,0,21.7-23.7A247.6,247.6,0,0,0,693,430.5a287.9,287.9,0,0,0,27.5-57c3.5-10,6.5-20.1,9.1-30.4s5-20.5,7.7-30.8,5.2-20.5,6.9-30.9c.9-5.2,1.5-10.5,1.9-15.6.3-2.6.5-5.1.6-7.6l.2-3.6V252l3.6-114,74.8,83.9c6.1,6.8,11.8,13.8,17.2,20.9s10.3,14.6,14.9,22,9,15.1,13,22.8,7.7,15.5,11.2,23.4c13.7,31.4,23.2,63.6,30,95.8a700,700,0,0,1,13.1,96.9c1,16.1,1.6,32.3,1.7,48.5,0,8.1-.1,16.2-.4,24.3-.1,4.1-.2,8.2-.4,12.3l-.4,6.3-.2,3.2-.3,3.7.2-4a423,423,0,0,1-8,81.7,417.4,417.4,0,0,1-23.8,78.7A420,420,0,0,1,666.4,985.2a417.4,417.4,0,0,1-78.7,23.8,421.2,421.2,0,0,1-163.4,0,417.4,417.4,0,0,1-78.7-23.8A420,420,0,0,1,118.8,758.4,417.4,417.4,0,0,1,95,679.7,423,423,0,0,1,87,598l.2,4.2-.3-3.9-.2-3.4-.4-6.6c-.2-4.3-.4-8.6-.5-12.9-.2-8.5-.3-16.9-.2-25.4.1-16.8.8-33.6,1.9-50.3A860.1,860.1,0,0,1,100.3,400a774.3,774.3,0,0,1,24.9-97.8,681.4,681.4,0,0,1,38.6-94.3L242.5,50,249,228v2.8c.1,1.2.1,2.5.2,3.8s.5,5.3.8,8c.6,5.4,1.4,10.9,2.4,16.3a233.5,233.5,0,0,0,8.1,31.7c6.9,20.4,16.7,38.9,29.3,53.4a115.3,115.3,0,0,0,45.7,32.7,153.2,153.2,0,0,0,28.7,7.8A192.9,192.9,0,0,0,396,387l-22.3,5.9A115.9,115.9,0,0,0,393.5,379a45.1,45.1,0,0,0,10.7-13.2c.5-1.1,1-2.1,1.4-3.1s.7-2.1.9-3.2a35.1,35.1,0,0,0,1-7.7,85.3,85.3,0,0,0-2.7-21.8,253.2,253.2,0,0,0-8.5-27.3c-3.5-9.6-7.5-19.6-11.8-29.8-8.5-20.5-17.6-42-25.9-64.5a537.9,537.9,0,0,1-21.3-70.7c-2.8-12.2-5-24.7-6.7-37.3s-2.7-25.5-3.1-38.3a372.9,372.9,0,0,1,5.7-76.9A411.6,411.6,0,0,1,354-88.2l66.7-173.6L440.9-75.5l.2,2,.3,2.9c.3,1.9.6,4,.9,6,.7,4.1,1.5,8.3,2.4,12.5,1.8,8.4,3.9,16.9,6.4,25.2a326.3,326.3,0,0,0,18.7,48.5c15,31,34.9,58.9,59.5,81.6a246.6,246.6,0,0,0,19.2,16l5.1,3.7,5.1,3.6,11.9,7.7a508.5,508.5,0,0,1,52.1,38.7c8.4,7.2,16.8,14.6,24.9,22.5a257.7,257.7,0,0,1,23.5,25.3,205.4,205.4,0,0,1,19.5,29.4A272.5,272.5,0,0,1,705,282.8a250.5,250.5,0,0,1,14.2,69,291.9,291.9,0,0,1-3.6,67.1c-1.8,10.8-4,21.4-6.6,31.7s-5.7,20.5-9,30.5-6.8,19.8-10.7,29.3l-1.4,3.7-1.5,3.5-3,7.2-3.1,7c-1,2.4-2,4.7-3.1,7-17,37.3-36.8,72.4-57.9,106.4S575.6,712,552,744Z" transform="translate(-85.5 261.8)" style="fill: #fff"/>
  <circle cx="586.5" cy="177.8" r="96" style="fill: none;stroke: #fff;stroke-width: 90px"/>
</svg>
