<svg id="Calque_15" data-name="Calque 15" xmlns="http://www.w3.org/2000/svg" width="1121.3" height="1121.3" viewBox="0 0 1121.3 1121.3">
  <title>grid</title>
  <path d="M672.1,684.1C861.1,633.2,996,516,996,516S861.1,398.8,672.1,347.9C621.2,158.9,504,24,504,24S386.8,158.9,335.9,347.9C146.9,398.8,12,516,12,516S146.9,633.2,335.9,684.1C386.8,873.1,504,1008,504,1008S621.2,873.1,672.1,684.1Z" transform="translate(56.6 44.6)" style="fill: none;stroke: #fff;stroke-miterlimit: 10;stroke-width: 90px"/>
  <circle cx="560.6" cy="560.6" r="96" style="fill: none;stroke: #fff;stroke-miterlimit: 10;stroke-width: 90px"/>
  <path d="M798.7,638.1C918.5,583.3,996,516,996,516s-77.5-67.3-197.3-122.1c46-123.4,53.2-225.8,53.2-225.8s-102.4,7.2-225.8,53.2C571.3,101.5,504,24,504,24s-67.3,77.5-122.1,197.3c-123.4-46-225.8-53.2-225.8-53.2s7.2,102.4,53.2,225.8C89.5,448.7,12,516,12,516s77.5,67.3,197.3,122.1c-46,123.4-53.2,225.8-53.2,225.8s102.4-7.2,225.8-53.2C436.7,930.5,504,1008,504,1008s67.3-77.5,122.1-197.3c123.4,46,225.8,53.2,225.8,53.2S844.7,761.5,798.7,638.1Z" transform="translate(56.6 44.6)" style="fill: none;stroke: #fff;stroke-miterlimit: 10;stroke-width: 90px"/>
</svg>
