<svg id="Calque_1" data-name="Calque 1" xmlns="http://www.w3.org/2000/svg" xmlns:xlink="http://www.w3.org/1999/xlink" width="1551" height="739" viewBox="0 0 1551 739">
  <defs>
    <radialGradient id="Dégradé_sans_nom_74" data-name="Dégradé sans nom 74" cx="452.06" cy="490.6" r="346.99" gradientTransform="translate(-91.7 -121.7) scale(1.02 1.02)" gradientUnits="userSpaceOnUse">
      <stop offset="0" stop-color="#36a9e1"/>
      <stop offset="0.47" stop-color="#36a7e0"/>
      <stop offset="0.64" stop-color="#36a0db"/>
      <stop offset="0.77" stop-color="#3695d2"/>
      <stop offset="0.86" stop-color="#3584c5"/>
      <stop offset="0.95" stop-color="#356eb5"/>
      <stop offset="0.98" stop-color="#3563ad"/>
    </radialGradient>
  </defs>
  <title>LAOS_about</title>
  <g>
    <circle cx="371.1" cy="380.6" r="355.2" style="fill: url(#Dégradé_sans_nom_74)"/>
    <path d="M417.9,253.1S413,396.2,348.3,464.3c0,0-23.5,32.1-40.6-8.1,0,0,32.5,122.1,80.7,87.8,25.7-18.3,9.1-12.7,19.6-44.2C417.9,470.2,417.9,386.3,417.9,253.1Z" transform="translate(-130.7 -94.6)"/>
    <path d="M378.4,549.1s18.5-36.4,32.8-58.9c9.1-14.5,45.5-33.2,68.9-52.1,69.1-55.7,27.8-76.4,27.8-76.4s28.7,11,31,41.3-3.6,62.8-45.7,81.9C427.8,514.6,454,511.4,378.4,549.1Z" transform="translate(-130.7 -94.6)"/>
    <path d="M580.7,317.3c77.5,41.3,34.5,177.6-78.9,236.8C369,623.4,268.3,725,358.7,790.9c95.7,69.8,202.3,34.5,281.2,9.8,44.7-13.9,64.1-49.3,64.1-49.3-108.5,64.1-219.6,69-236.8-24.7-9.8-53.9,41.5-88.5,118.4-133.2,153-88.8,106.4-276.1,9.9-320.6-64.1-29.6-118.4,15.9-148,74,0,0-18.3,71.1-9.9,54.2C447.5,381.4,506.7,277.8,580.7,317.3Z" transform="translate(-130.7 -94.6)"/>
    <path d="M487,253.1s-14.3,20.1-21.9,35.8c-8.5,17.4-27.6,22.5-27.6,22.5s-4.8-53.3,78-103.2" transform="translate(-130.7 -94.6)"/>
    <path d="M501.8,833.5A383.4,383.4,0,0,1,245.9,731a362.9,362.9,0,0,1-83.3-115.4,346.4,346.4,0,0,1-23.1-68.4l-1.8-8.9-.9-4.4-.5-2.3-.3-2.2-1.4-9-.7-4.5c-.2-1.5-.5-3-.6-4.5-.6-6-1.2-12-1.7-18.1l-.9-18.2a374.5,374.5,0,0,1,297-372.2,384.9,384.9,0,0,1,74.1-8.3A391,391,0,0,1,648.5,121a384.3,384.3,0,0,1,126.6,80.8A367.6,367.6,0,0,1,882.2,399.5l1.6,9.4.8,4.7.4,2.3.3,2.4,1.1,9.4.5,4.8c.2,1.5.4,3.1.5,4.7.3,6.3.8,12.6,1.1,19v18.9a364.8,364.8,0,0,1-9.3,75.1,355.4,355.4,0,0,1-63.9,134.5,377.4,377.4,0,0,1-50.5,53.6,387.9,387.9,0,0,1-124.2,72.2A396,396,0,0,1,501.8,833.5Zm0-6.3a326.4,326.4,0,0,0,68.3-8.4,315.1,315.1,0,0,0,64.6-22.6A324.9,324.9,0,0,0,741,714.3a345.4,345.4,0,0,0,37.9-54A357,357,0,0,0,805.6,601a361.7,361.7,0,0,0,19.7-125.9,342.5,342.5,0,0,0-94.5-229A329.8,329.8,0,0,0,627,172.8a333.7,333.7,0,0,0-61.1-20.1,328.1,328.1,0,0,0-64.1-7.5A336.3,336.3,0,0,0,162.4,475.1a349.6,349.6,0,0,0,92.9,246.5A329.8,329.8,0,0,0,433,821,337.5,337.5,0,0,0,501.8,827.2Z" transform="translate(-130.7 -94.6)"/>
    <path d="M506.7,258.1s44.4-34.6,103.6,4.9c0,0-4.9-29.6-39.5-39.5,19.8-9.8,24.7-19.7,44.4-24.6C615.2,198.9,538.4,198.1,506.7,258.1Z" transform="translate(-130.7 -94.6)"/>
  </g>
  <g>
    <path d="M1002.2,291.7c0-7.3-1.2-12.7-5.5-17l-18.2-17.6c-1.2-1.8-4.2-3.6-4.2-5.5a3.5,3.5,0,0,1,3.6-3.6h95.4a3.5,3.5,0,0,1,3.7,3.6c0,1.9-3.1,3.7-4.3,5.5l-18.2,17.6c-4.3,4.3-5.5,9.7-5.5,17V673.4h24.3c7.3,0,13.4-1.8,15.8-9.1l37.7-117.9c1.2-2.4,1.2-4.3,3.6-4.3s3.1,1.9,3.1,4.3V695.3c0,5.5-1.8,8.5-6.7,8.5H977.9a3.5,3.5,0,0,1-3.6-3.7c0-1.8,3-3,4.2-5.4l18.2-17.6c4.3-4.3,5.5-9.8,5.5-17.1Z" transform="translate(-130.7 -94.6)" style="fill: #1d1d1b"/>
    <path d="M1267.8,602.3c-.6-3-2.4-5.5-5.5-5.5h-45c-1.8,0-3,1.9-3.6,4.3l-9.1,66.8a14.1,14.1,0,0,0,3,11l13.4,14c2.4,3,6.1,5.4,6.1,7.2s-1.2,3.7-4.3,3.7h-69.9a3.5,3.5,0,0,1-3.6-3.7c0-1.8,2.4-4.2,4.2-6l17.1-17c3.6-3.7,4.2-9.8,4.8-15.2l55.3-408.4c.6-3.1,1.8-5.5,4.9-5.5h22.5c3,0,4.8,3,5.4,6.7l57.8,407.8c.6,6,2.4,12.7,6.7,16.4l17.6,15.8c1.8,1.8,3.6,3.6,3.6,5.4s-1.2,3.7-4.2,3.7h-87.5c-3.1,0-4.3-1.8-4.3-3.7s2.4-3.6,4.3-5.4l16.4-16.4c2.4-2.5,3.6-6.7,3-12.2Zm-8.5-37.7c1.8,0,3-1.8,2.4-4.2l-21.3-148.9h-1.2l-20,149.5c-.6,2.4.6,3.6,1.8,3.6Z" transform="translate(-130.7 -94.6)" style="fill: #1d1d1b"/>
    <path d="M1510.3,463.7c0,114.9-7.9,240.1-81.5,240.1S1348,578.6,1348,463.7c0-87.5,7.9-215.7,80.8-215.7S1510.3,376.2,1510.3,463.7Zm-112.5.6c0,158.1,13.4,209.1,31,209.1s31.6-51,31.6-209.1c0-134.9-13.3-185.9-31.6-185.9S1397.8,329.4,1397.8,464.3Z" transform="translate(-130.7 -94.6)" style="fill: #1d1d1b"/>
    <path d="M1671.9,405.4c0,1.8-1.2,3-3.6,3s-3.1-1.8-3.7-4.2c-9.7-49.3-38.9-125.8-66.8-125.8-15.2,0-16.4,12.7-16.4,28.5,0,29.8,7.9,59.6,52.9,155,42.5,90,47.4,110,47.4,158,0,64.4-33.5,83.9-56,83.9-16.4,0-26.7-6.7-34-11.6s-10.3-6-12.1-6-7.3,4.2-19.5,13.3c-2.4,1.9-4.9,4.3-7.3,4.3s-3-1.2-3-3V547.6c0-1.8.6-4.3,3-4.3s3.1,2.5,3.7,4.3c10.9,48.6,29.7,125.8,65.6,125.8,11.5,0,17.6-12.8,17.6-31.6,0-40.7-18.2-85.1-52.9-158-32.8-69.3-44.9-115.5-44.9-159.8,0-57.8,24.9-76,55.9-76,11.5,0,24.9,6.7,34,14,3.1,1.8,6.7,3.6,9.1,3.6s8.5-4.2,14-9.7,9.1-7.9,12.8-7.9,4.2,3,4.2,6.7Z" transform="translate(-130.7 -94.6)" style="fill: #1d1d1b"/>
  </g>
</svg>
