<svg xmlns="http://www.w3.org/2000/svg" xmlns:xlink="http://www.w3.org/1999/xlink" width="1843.8" height="1797.5" viewBox="0 0 1843.8 1797.5"><defs><style>.cls-1{fill:url(#Dégradé_sans_nom_74);}</style><radialGradient id="Dégradé_sans_nom_74" cx="989.39" cy="1022.33" r="844" gradientTransform="translate(-110.2 -120.9) scale(1.02 1.02)" gradientUnits="userSpaceOnUse"><stop offset="0" stop-color="#36a9e1"/><stop offset="0.47" stop-color="#36a7e0"/><stop offset="0.64" stop-color="#36a0db"/><stop offset="0.77" stop-color="#3695d2"/><stop offset="0.86" stop-color="#3584c5"/><stop offset="0.95" stop-color="#356eb5"/><stop offset="0.98" stop-color="#3563ad"/></radialGradient></defs><title>Laos_logo</title><g id="Calque_1" data-name="Calque 1"><circle class="cls-1" cx="902.6" cy="925.7" r="864"/></g><g id="Calque_2" data-name="Calque 2"><path d="M816,468S804,816,646.6,981.7c0,0-57,78.1-98.8-19.7,0,0,79.1,296.9,196.3,213.6,62.7-44.6,22.4-31,47.9-107.6C816,996,816,792,816,468Z" transform="translate(-117.4 -82.3)"/><path d="M720,1188s44.9-88.6,79.6-143.4c22.3-35.3,110.7-80.7,167.7-126.6,168.1-135.7,67.6-185.9,67.6-185.9s69.9,26.8,75.4,100.5c5.3,70.9-8.7,152.6-111.1,199.1C840,1104,903.8,1096.3,720,1188Z" transform="translate(-117.4 -82.3)"/><path d="M1212,624c188.5,100.5,84,432-192,576-323,168.5-567.8,415.7-348,576,232.8,169.8,492,84,684,24,108.7-34,156-120,156-120-264,156-534.3,167.7-576-60-24-131.1,100.9-215.4,288-324,372-216,258.7-671.7,24-780-156-72-288,38.8-360,180,0,0-44.5,173-24,132C888,780,1032,528,1212,624Z" transform="translate(-117.4 -82.3)"/><path d="M984,468s-34.7,48.7-53.3,87c-20.5,42.5-67,54.8-67,54.8S852,480,1053.4,358.8" transform="translate(-117.4 -82.3)"/><path d="M1020,1879.7a933.5,933.5,0,0,1-622.4-249.3q-31.7-29.6-60.4-62t-54.4-67.8a872,872,0,0,1-87.9-150.8,849.6,849.6,0,0,1-56.1-166.5A875.2,875.2,0,0,1,117.5,1008a911.9,911.9,0,0,1,14-176.7,902,902,0,0,1,130-330.2A913.6,913.6,0,0,1,839.9,102.5,932.1,932.1,0,0,1,1020,82.4a958.3,958.3,0,0,1,181.1,14.8,944.3,944.3,0,0,1,175.7,49.4c113.8,44.3,219.4,111.2,308,196.6A903,903,0,0,1,1804.2,484,897,897,0,0,1,1961,1008a869.1,869.1,0,0,1-22.8,182.6,838.1,838.1,0,0,1-25.7,88.1c-1.2,3.6-2.5,7.2-3.8,10.8l-4.1,10.7-2,5.4c-.6,1.8-1.4,3.5-2.1,5.3l-4.3,10.6c-2.8,7.1-6,14-9,21l-2.3,5.3-2.4,5.1-4.9,10.4a863.3,863.3,0,0,1-94.7,154.5c-18.3,23.8-37.9,46.6-58.4,68.4s-42,42.4-64.4,61.9a932.4,932.4,0,0,1-143.9,102.5,948.9,948.9,0,0,1-158.3,73.3A968.4,968.4,0,0,1,1020,1879.7Zm0-15.4a779.9,779.9,0,0,0,166.3-20.3,762.5,762.5,0,0,0,157.1-55.1,778.2,778.2,0,0,0,140.4-86.6,794.5,794.5,0,0,0,62.1-53.5q29.5-28.2,55.9-59t49.5-63.8c15.4-21.9,29.6-44.6,42.7-67.7a866.8,866.8,0,0,0,65.2-144.2A881.1,881.1,0,0,0,1807,1008a831,831,0,0,0-230-557q-26.7-28-56.1-53.4a767.7,767.7,0,0,0-61.1-48,787.7,787.7,0,0,0-135.2-77,774.7,774.7,0,0,0-304.6-67,811.4,811.4,0,0,0-157.1,12.9A797.8,797.8,0,0,0,711,261.9,819,819,0,0,0,213.5,847.5a830.9,830.9,0,0,0-19,160.5,879.3,879.3,0,0,0,11.7,161.9,858,858,0,0,0,42.2,157.7,843.4,843.4,0,0,0,172.1,279.9,812.3,812.3,0,0,0,125.5,110,794.2,794.2,0,0,0,306.6,131.8A810.9,810.9,0,0,0,1020,1864.3Z" transform="translate(-117.4 -82.3)"/><path d="M1032,480s108-84,252,12c0,0-12-72-96-96,48-24,60-48,108-60C1296,336,1109.1,334.3,1032,480Z" transform="translate(-117.4 -82.3)"/></g></svg>