<svg id="bold" xmlns="http://www.w3.org/2000/svg" width="512.0468" height="511.325" viewBox="0 0 512.0468 511.325">
  <title>pen_black</title>
  <path d="M51.8,334.3l292-292.2a16.059,16.059,0,0,1,11.3-4.7h0a16.059,16.059,0,0,1,11.3,4.7L470,145.5a15.934,15.934,0,0,1,0,22.6L177.7,460.2Z" transform="translate(0.0468 -0.675)"/>
  <path d="M481.5,126.8,492,116.3a67.84,67.84,0,0,0,0-96.2c-25.6-25.9-70.7-25.9-96.3,0L385.2,30.6Z" transform="translate(0.0468 -0.675)"/>
  <path d="M43.2,355.8.7,491.2A16.0683,16.0683,0,0,0,16,512a15.9434,15.9434,0,0,0,4.8-.7l135.4-42.5Z" transform="translate(0.0468 -0.675)"/>
  <path d="M148.7,187.5a15.9843,15.9843,0,0,0,11.3-4.7L263.3,79.5a25.1548,25.1548,0,0,1,20.1-7.1l25.3-25.3a57.6374,57.6374,0,0,0-68,9.8L137.4,160.1a15.8746,15.8746,0,0,0,0,22.6,15.68,15.68,0,0,0,11.3,4.8Z" transform="translate(0.0468 -0.675)"/>
</svg>
