<svg xmlns="http://www.w3.org/2000/svg" width="125.1mm" height="100.1mm" viewBox="0 0 354.7 283.7"><defs><style>.cls-1{fill-rule:evenodd; fill:white;}</style></defs><title>rabbit</title><g id="Calque_2" data-name="Calque 2"><g id="Layer_1" data-name="Layer 1"><path class="cls-1" d="M29.7,198c-.7-3.5-1.4-6.7-2-9.9-1.7-8.9-1.1-17.8.1-26.6a110.4,110.4,0,0,1,20.1-50.2c6.6-9.1,15.2-16.1,24.4-22.4,14.2-9.8,29.8-16.3,46.9-18.5a164.9,164.9,0,0,1,32.2-.9c19.7,1.6,37.5,8.7,54.6,17.9,7.4,3.9,24.4,11.2,24.7,10.8,6.9-10.7,27.9-24.1,28.2-24.5l-2.7-1.1c-20.8-7-41.8-13.6-62.5-21-14-5-27.4-11.3-39.6-19.8-6.9-4.8-12.8-10.5-15.5-18.7a17.2,17.2,0,0,1-.8-6.8c.3-3.8,2.3-5.7,6.1-6,7.6-.8,15.2.1,22.7,1.4,10.5,1.8,20.2,6,29.7,10.3a352.3,352.3,0,0,1,49.1,27.5c11.5,7.9,22.7,16.2,34.3,23.9a134.8,134.8,0,0,0,19.5,11.2c15.6,7.2,27.3,18.5,35.9,33,5.4,9.2,10.8,18.3,15.8,27.7a32.2,32.2,0,0,1,3.5,19.8c-.9,6.6-4.6,10-10.6,13.8-12.3,4.9-25.2,6.5-38.3,5.9s-49.3-2.7-51.2-.8c-8.1,7.6-27,24.2-28.2,24.3-13.3.7-40.9,1.7-41.5,1.6,1.3-5.3,2.7-10.5,4-15.6a55.1,55.1,0,0,0-4.1-39.1c-4-7.9-10.5-13.4-18.2-17.5a56.8,56.8,0,0,0-39.6-5.6c-4.5,1-12.2,5.9-12.1,6.1l8.2-1.2c16.7-2,31.9,1.6,44.1,13.3s15,24.9,11.6,40.2c-1.9,8.8-5.4,17.2-8.1,25.9-.2.7-.5,1.4-.9,2.5H174c12.9-.7,25.8-1.6,38.8-2.1,10.2-.3,20.4-1,30.5,1.3a44.3,44.3,0,0,1,14.5,6.1,19.4,19.4,0,0,1,7.8,10.2c2.3,6.6-.2,10.7-7.1,11.3a124.3,124.3,0,0,1-14.9.5,289.7,289.7,0,0,0-47.5,2.4c-16.7,2.3-33.3,5-49.9,7.4s-32.8,3.2-49.1.8-30.1-7.4-43-16.7c-3.8-2.7-11.6-10.4-12.4-11.4-1.4,8.1-5.1,13.8-11.9,17.1a20.7,20.7,0,0,1-29-24.3C4.2,199.4,14.8,194.4,29.7,198ZM322,117a6.9,6.9,0,1,0-6.9,6.9A6.8,6.8,0,0,0,322,117Z"/><path class="cls-1" d="M126.5,269.1a93.3,93.3,0,0,1-20.1,11.5,43.9,43.9,0,0,1-18.9,3c-4.6-.3-7.6-2.1-11-6.4a9.8,9.8,0,0,1,1-9.4c2.7-4.4,10-13.9,10.5-13.7,15.8,4.1,31.8,3,47.8,1.6l7.3-.6C143.3,255.4,132.3,264.9,126.5,269.1Z"/></g></g></svg>
