<svg width="14" height="12" viewBox="0 0 14 12" fill="none" xmlns="http://www.w3.org/2000/svg">
<path fill-rule="evenodd" clip-rule="evenodd" d="M1.42854 1C1.31489 1 1.20589 1.0439 1.12552 1.12203C1.04515 1.20017 1 1.30614 1 1.41664V5.41643C1 5.69001 1.05542 5.9609 1.1631 6.21365C1.27079 6.4664 1.42862 6.69605 1.62759 6.8895C2.02943 7.28018 2.57444 7.49966 3.14272 7.49966H11.5362L8.66751 10.2878C8.58704 10.3661 8.54183 10.4722 8.54183 10.5828C8.54183 10.6935 8.58704 10.7996 8.66751 10.8778C8.74798 10.956 8.85712 11 8.97092 11C9.08472 11 9.19386 10.956 9.27433 10.8778L12.8741 7.378C12.914 7.3393 12.9457 7.29332 12.9673 7.2427C12.9889 7.19208 13 7.13782 13 7.08301C13 7.02821 12.9889 6.97395 12.9673 6.92333C12.9457 6.87271 12.914 6.82673 12.8741 6.78803L9.44575 3.45487C9.36528 3.37664 9.25614 3.33268 9.14234 3.33268C9.02854 3.33268 8.9194 3.37664 8.83893 3.45487C8.75846 3.53311 8.71325 3.63921 8.71325 3.74986C8.71325 3.8605 8.75846 3.9666 8.83893 4.04484L11.5362 6.66637H3.14272C2.80175 6.66637 2.47474 6.53468 2.23364 6.30027C1.99254 6.06586 1.85709 5.74794 1.85709 5.41643V1.41664C1.85709 1.30614 1.81194 1.20017 1.73157 1.12203C1.6512 1.0439 1.5422 1 1.42854 1V1Z" fill="black" stroke="black" stroke-width="0.7"/>
</svg>
