<svg xmlns="http://www.w3.org/2000/svg" width="1794.4" height="932.8" viewBox="0 0 1794.4 932.8"><title>turtle</title><style>path{fill:#ff9600;}</style><g id="Calque_2" data-name="Calque 2"><g id="Layer_1" data-name="Layer 1"><path d="M1332.5,236.6c-72-21.8-140.3-52.5-202.5-97.8-44.2-32.2-91.5-59.9-141.8-81.3C600.3-108.1,359.4,99.6,187.4,482.3c-15,35.3-39.3,57.4-67.8,73.5-17.1,9.6-18.3,33.6-2.7,45.5C358.5,784.3,1172,860.4,1356.6,282.5A36.4,36.4,0,0,0,1332.5,236.6Z"/><path d="M521.7,820.1v69.3a34.8,34.8,0,0,1-26.8,33.9,338.3,338.3,0,0,1-158.8,0,34.8,34.8,0,0,1-26.8-33.9V779.1c0-15,15.9-24.4,29.2-17.5,50.7,26.6,105.6,38.2,163.7,38.7A19.8,19.8,0,0,1,521.7,820.1Z"/><path d="M175.1,764.9c-51.4,14.3-105.5,18.5-161.9,14.5-12-.9-17.6-15.4-9.1-24l67.3-68.6a17.9,17.9,0,0,1,25-.3c20.7,19.8,47.7,34.2,79.4,44.4C192.5,736.3,192,760.2,175.1,764.9Z"/><path d="M1193.2,628.6c-34.6,37.8-71,67.3-110.6,82.5a20.7,20.7,0,0,0-10.9,29.3c22.5,41.1,30.9,91.5,23.8,152.2a28.5,28.5,0,0,0,20.9,30.9c52,13.5,107.5,11.6,165.5-1.5a28.2,28.2,0,0,0,21.9-31.1c-12.5-106.6-36.6-196-78-259.8A20.7,20.7,0,0,0,1193.2,628.6Z"/><path d="M1285.1,542.7c36.2,56.1,328.9,17.6,451.7-82.2,31.2-25.3,51-62.2,55.7-102.1,18.7-159.2-108.4-260.8-270.1-141.5A383,383,0,0,0,1426.9,320Zm298.4-231.6a31.9,31.9,0,1,1,31.9,31.9A31.8,31.8,0,0,1,1583.5,311.1Z"/></g></g></svg>
