<?xml version="1.0" standalone="no"?>
<!DOCTYPE svg PUBLIC "-//W3C//DTD SVG 20010904//EN"
 "http://www.w3.org/TR/2001/REC-SVG-20010904/DTD/svg10.dtd">
<svg version="1.0" xmlns="http://www.w3.org/2000/svg"
 width="1844.000000pt" height="1844.000000pt" viewBox="0 0 1844.000000 1844.000000"
 preserveAspectRatio="xMidYMid meet">
<metadata>
Created by potrace 1.14, written by Peter Selinger 2001-2017
</metadata>
<g transform="translate(0.000000,1844.000000) scale(0.100000,-0.100000)"
fill="#000000" stroke="none">
<path d="M8865 18194 c-978 -42 -1801 -190 -2661 -479 -1151 -387 -2196 -990
-3129 -1806 -177 -155 -548 -521 -716 -706 -716 -792 -1270 -1666 -1671 -2633
-642 -1550 -840 -3272 -563 -4905 270 -1594 963 -3045 2051 -4293 266 -305
689 -716 1024 -994 729 -606 1581 -1113 2470 -1470 937 -377 1856 -584 2920
-659 258 -19 944 -16 1220 5 1331 99 2513 419 3660 993 1313 656 2400 1557
3256 2698 715 954 1243 2098 1499 3249 148 669 209 1222 209 1911 0 377 -9
559 -40 885 -267 2759 -1795 5227 -4175 6743 -1335 849 -2879 1348 -4479 1447
-175 11 -741 20 -875 14z m325 -1234 c1379 -56 2630 -434 3800 -1148 529 -322
1029 -718 1485 -1176 1102 -1106 1863 -2487 2214 -4016 294 -1280 276 -2668
-50 -3985 -333 -1339 -980 -2581 -1878 -3600 -228 -259 -719 -736 -846 -822
-137 -93 -714 -392 -1000 -518 -923 -408 -1730 -605 -2472 -605 -366 0 -649
41 -930 135 -725 242 -1168 778 -1325 1605 -32 168 -32 470 1 620 130 606 575
1127 1510 1771 291 200 705 457 1281 794 502 294 817 527 1152 853 772 753
1221 1686 1323 2747 21 215 21 621 0 840 -55 584 -210 1141 -465 1660 -590
1206 -1628 1976 -2664 1975 -506 0 -1022 -200 -1491 -576 -128 -103 -388 -359
-497 -489 -216 -258 -423 -567 -586 -875 -47 -88 -56 -119 -131 -430 -165
-688 -228 -1007 -203 -1032 11 -11 11 -11 122 192 318 580 745 1129 1160 1493
370 324 741 523 1120 598 163 33 456 33 610 0 525 -111 971 -425 1218 -858
303 -530 334 -1261 86 -2025 -371 -1141 -1254 -2202 -2413 -2898 -57 -34 -231
-130 -385 -212 -2036 -1087 -3450 -2278 -3987 -3358 -185 -373 -258 -686 -238
-1027 22 -367 188 -718 488 -1026 201 -207 519 -441 869 -639 59 -33 98 -57
87 -53 -426 147 -1017 436 -1470 718 -740 460 -1427 1065 -1990 1752 -986
1202 -1632 2687 -1839 4230 -36 261 -34 250 -51 440 -115 1330 78 2642 565
3845 599 1480 1597 2731 2920 3658 524 367 1204 722 1810 945 760 280 1518
439 2310 487 164 10 238 13 450 18 47 1 195 -3 330 -8z"/>
<path d="M11510 15649 c-47 -5 -141 -18 -210 -30 -984 -164 -1713 -626 -2126
-1344 l-29 -50 29 19 c434 282 998 383 1527 276 278 -57 575 -176 843 -338 65
-40 120 -71 122 -70 1 2 -11 44 -27 93 -36 114 -103 246 -176 348 -72 100
-226 247 -329 316 -94 63 -251 140 -351 172 l-72 23 82 44 c98 54 220 133 421
274 179 126 305 195 446 242 l105 36 -85 -2 c-47 0 -123 -5 -170 -9z"/>
<path d="M9220 15349 c-740 -477 -1250 -997 -1530 -1560 -83 -168 -127 -281
-166 -424 -46 -171 -79 -435 -54 -435 24 0 167 62 235 102 223 131 326 245
468 513 123 234 198 357 400 660 167 250 787 1225 779 1225 -4 -1 -63 -37
-132 -81z"/>
<path d="M6967 14045 c-156 -1933 -697 -3634 -1461 -4588 -142 -178 -322 -374
-390 -424 -215 -160 -411 -157 -580 11 -71 70 -109 122 -172 239 -52 96 -50
81 24 -148 198 -619 468 -1189 722 -1526 81 -107 236 -267 321 -329 237 -176
486 -202 724 -76 749 397 911 492 1344 784 134 91 302 200 375 243 156 94 539
289 831 424 116 53 257 123 315 156 617 350 920 892 920 1644 0 353 -54 568
-195 782 -106 159 -317 344 -489 429 l-51 25 35 -27 c235 -185 293 -468 160
-787 -115 -277 -405 -619 -811 -957 -219 -183 -370 -291 -878 -629 -575 -384
-768 -536 -878 -696 -19 -27 -32 -41 -29 -30 14 52 48 267 66 420 39 343 71
861 90 1495 13 422 32 2652 28 3290 l-3 495 -18 -220z"/>
</g>
</svg>
